<?xml version="1.0" encoding="utf-8"?>
<!-- Generator: Adobe Illustrator 19.2.1, SVG Export Plug-In . SVG Version: 6.00 Build 0)  -->
<svg version="1.1" id="Layer_1" xmlns="http://www.w3.org/2000/svg" xmlns:xlink="http://www.w3.org/1999/xlink" x="0px" y="0px"
	 viewBox="0 0 259.8 63" style="enable-background:new 0 0 259.8 63;" xml:space="preserve">
<style type="text/css">
	.st0{display:none;}
	.st1{display:inline;fill:#00FFFF;}
	.st2{enable-background:new    ;}
	.st3{fill:#FFFFFF;}
</style>
<g id="Layer_2" class="st0">
	<rect x="-23.6" y="-8.7" class="st1" width="305" height="83"/>
</g>
<g id="Layer_1_1_">
	<g class="st2">
		<path class="st3" d="M91.6,40.7h-9.9L80,44h-8.9l15.2-25.8h9.8L100,44h-8.1L91.6,40.7z M85.2,34.2H91l-0.9-9.5L85.2,34.2z"/>
		<path class="st3" d="M106.9,18.2h7L108.2,44h-7L106.9,18.2z"/>
		<path class="st3" d="M117.4,51.1h-7l5.7-25.8h7l-0.5,2c1.6-1.8,3.1-2.4,5.1-2.4c4.2,0,7,2.7,7,7.8c0,5.2-3.2,11.8-9.9,11.8
			c-2.1,0-4.2-0.8-5.4-2.4L117.4,51.1z M124.5,31c-1.1,0-2,0.5-2.8,1.3l-1.1,4.8c0.7,0.8,1.9,1.3,3.1,1.3c2.2,0,3.9-1.8,3.9-4.2
			C127.6,32.2,126.1,31,124.5,31z"/>
		<path class="st3" d="M150,34c0.1-0.3,0.2-0.9,0.2-1.2c0-1.3-1.1-1.7-2.5-1.7c-1.2,0-2.3,0.8-3,1.4L142.1,44h-7l5.7-25.8h7
			l-2.1,9.3c1.4-1.2,3.1-2.6,5.9-2.6c3.9,0,6.2,2.1,6.2,4.9c0,0.4-0.1,1.2-0.2,1.5L154.8,44h-7L150,34z"/>
		<path class="st3" d="M175,25.3h7L177.8,44h-7l0.5-2c-1.6,1.8-3.1,2.4-5.1,2.4c-4.2,0-7-2.8-7-7.8c0-5.2,3.2-11.8,9.9-11.8
			c2.1,0,4.2,0.8,5.4,2.4L175,25.3z M169.6,38.3c1.1,0,2-0.5,2.8-1.3l1.1-4.8c-0.7-0.8-1.9-1.3-3.1-1.3c-2.2,0-3.9,1.8-3.9,4.2
			C166.5,37.1,167.9,38.3,169.6,38.3z"/>
		<path class="st3" d="M185.7,34c1.9,2.3,5.5,3.9,8.9,3.9c1.6,0,2.2-0.6,2.2-1.3c0-0.9-1.2-1.5-3.3-2.2c-3.6-1.2-8.9-3-8.9-8.4
			c0-3.4,3.5-8.2,10.9-8.2c4.2,0,8.4,1.5,11.3,4.3l-4.6,5.3c-1.9-2.1-5.3-3.1-7.5-3.1c-1.4,0-2,0.6-2,1.3c0,0.9,1.4,1.4,3.3,2.1
			c3.7,1.2,9,3.1,9,8.1c0,4.8-4.1,8.8-10.8,8.8c-5.5,0-10.4-2-12.9-5L185.7,34z"/>
		<path class="st3" d="M207.8,38.3l1.5-6.9h-3.1l1.4-6h3.1l1.1-5.1h7l-1.1,5.1h3.8l-1.4,6h-3.8l-1,4.6c-0.1,0.3-0.1,0.7-0.1,0.9
			c0,0.9,0.5,1.5,1.7,1.5c0.3,0,0.9-0.1,1-0.2v5.6c-0.7,0.5-2.1,0.8-3.3,0.8c-4,0-6.9-1.5-6.9-4.7C207.6,39.5,207.6,38.8,207.8,38.3
			z"/>
		<path class="st3" d="M236.2,25.3h7L239,44h-7l0.5-2c-1.6,1.8-3.1,2.4-5.1,2.4c-4.2,0-7-2.8-7-7.8c0-5.2,3.2-11.8,9.9-11.8
			c2.1,0,4.2,0.8,5.4,2.4L236.2,25.3z M230.8,38.3c1.1,0,2-0.5,2.8-1.3l1.1-4.8c-0.7-0.8-1.9-1.3-3.1-1.3c-2.2,0-3.9,1.8-3.9,4.2
			C227.7,37.1,229.1,38.3,230.8,38.3z"/>
		<path class="st3" d="M247.1,25.3h7l-0.5,2.1c1.4-1.5,3.6-2.6,6.3-2.6l-1.5,6.8c-0.3-0.1-1.2-0.3-2.1-0.3c-1.5,0-2.9,0.5-3.9,1.4
			L249.9,44h-7L247.1,25.3z"/>
	</g>
	<g>
		<polygon class="st3" points="28.6,33.1 34.4,33.1 31.5,24 		"/>
		<path class="st3" d="M31.5,5.6C17.2,5.6,5.6,17.2,5.6,31.5s11.6,25.9,25.9,25.9s25.9-11.6,25.9-25.9S45.8,5.6,31.5,5.6z
			 M37.5,42.9l-1-3.3h-9.9l-1,3.3h-8.5l9.5-25.8h9.8l9.5,25.8H37.5z"/>
	</g>
	<polygon class="st3" points="31.4,20.9 33.9,25.8 39.3,26.6 35.4,30.5 36.3,35.9 31.4,33.4 26.5,35.9 27.4,30.5 23.5,26.6 29,25.8 
			"/>
</g>
</svg>
