<?xml version="1.0" encoding="utf-8"?>
<!-- Generator: Adobe Illustrator 19.2.1, SVG Export Plug-In . SVG Version: 6.00 Build 0)  -->
<svg version="1.1" id="Isolation_Mode" xmlns="http://www.w3.org/2000/svg" xmlns:xlink="http://www.w3.org/1999/xlink" x="0px"
	 y="0px" viewBox="0 0 362.5 362.5" style="enable-background:new 0 0 362.5 362.5;" xml:space="preserve">
<style type="text/css">
	.st0{fill:#0068AF;}
	.st1{fill:#FF7300;}
	.st2{fill:none;stroke:#0068AF;stroke-width:40;stroke-miterlimit:10;}
</style>
<path class="st0" d="M317.2,114.6C280.4,39.5,189.7,8.4,114.6,45.3C39.5,82.1,8.4,172.8,45.3,247.9C82.1,323,172.8,354,247.9,317.2
	S354,189.7,317.2,114.6z M232.5,285.8c-57.8,28.3-127.6,4.4-155.9-53.3C48.3,174.7,72.2,105,130,76.6
	c57.8-28.3,127.6-4.4,155.9,53.3C314.2,187.7,290.3,257.5,232.5,285.8z"/>
<polygon class="st0" points="101.4,73.2 144.7,51.9 111.8,13.4 91.1,23.6 "/>
<polygon class="st0" points="51.9,217.7 73.2,261.1 23.6,271.4 13.4,250.7 "/>
<polygon class="st0" points="261.1,289.3 217.7,310.5 250.7,349.1 271.4,338.9 "/>
<polygon class="st0" points="310.5,144.7 289.3,101.4 338.9,91.1 349.1,111.8 "/>
<polygon class="st0" points="48.1,161.2 63.7,115.5 13.8,111.8 6.4,133.6 "/>
<polygon class="st0" points="115.5,298.7 161.2,314.4 133.6,356.1 111.8,348.6 "/>
<polygon class="st0" points="314.4,201.3 298.7,246.9 348.6,250.7 356.1,228.9 "/>
<polygon class="st0" points="246.9,63.7 201.3,48.1 228.9,6.4 250.7,13.8 "/>
<polygon class="st0" points="65.5,112.5 97.1,76.1 52.3,53.8 37.2,71.2 "/>
<polygon class="st0" points="76.1,265.3 112.5,297 71.2,325.3 53.8,310.2 "/>
<polygon class="st0" points="297,249.9 265.3,286.4 310.2,308.6 325.3,291.2 "/>
<polygon class="st0" points="286.4,97.1 249.9,65.5 291.2,37.2 308.6,52.3 "/>
<polygon class="st0" points="50.8,214.5 47.4,166.4 0,182.3 1.6,205.3 "/>
<polygon class="st0" points="166.4,315 214.5,311.7 205.3,360.9 182.3,362.5 "/>
<polygon class="st0" points="311.7,147.9 315,196.1 362.5,180.2 360.9,157.2 "/>
<polygon class="st0" points="196.1,47.4 147.9,50.8 157.2,1.6 180.2,0 "/>
<g>
	<g>
		<path class="st1" d="M280.6,105.8c0,0,1,1.7,2.9,4.7c0.5,0.8,1,1.5,1.5,2.6c0.6,1,1.1,2.2,1.8,3.4c0.6,1.2,1.3,2.5,2,3.8
			c0.6,1.3,1.2,2.8,1.9,4.2c0.3,0.7,0.6,1.5,1,2.3c0.3,0.8,0.7,1.5,1,2.4c0.6,1.6,1.2,3.3,1.8,5c0.7,1.7,1.1,3.5,1.7,5.4
			c0.3,0.9,0.5,1.9,0.8,2.8c0.3,0.9,0.6,1.9,0.7,2.9c0.4,1.9,0.8,3.9,1.3,5.9c0.2,1,0.4,2,0.5,3c0.1,1,0.3,2,0.4,3.1
			c0.1,1,0.3,2.1,0.4,3.1c0.1,1,0.2,2.1,0.2,3.1c0.1,1,0.2,2.1,0.2,3.1c0.1,1,0.2,2.1,0.2,3.1c0,2.1,0,4.2,0,6.3
			c0,1-0.1,2.1-0.1,3.1c-0.1,1-0.1,2.1-0.2,3.1c-0.1,1-0.1,2-0.2,3c-0.1,1-0.3,2-0.4,3c-0.3,2-0.5,3.9-0.8,5.8
			c-0.8,3.8-1.4,7.5-2.5,10.8c-0.5,1.7-0.9,3.3-1.4,4.9c-0.6,1.6-1.1,3.1-1.6,4.5c-0.3,0.7-0.5,1.4-0.8,2.1c-0.1,0.3-0.2,0.7-0.4,1
			c-0.1,0.3-0.3,0.6-0.4,1c-0.6,1.3-1.1,2.5-1.6,3.6c-0.5,1.1-1,2.2-1.4,3.2c-0.5,0.9-1,1.8-1.4,2.6c-1.7,3.1-2.6,4.9-2.6,4.9
			s0.7-1.9,1.9-5.2c0.3-0.8,0.6-1.7,1-2.7c0.3-1,0.6-2.1,0.9-3.3c0.3-1.2,0.7-2.4,1.1-3.7c0.1-0.3,0.2-0.7,0.3-1
			c0.1-0.3,0.1-0.7,0.2-1c0.1-0.7,0.3-1.4,0.5-2.1c0.3-1.5,0.6-3,1-4.5c0.3-1.6,0.5-3.2,0.7-4.9c0.6-3.3,0.7-7,0.9-10.6
			c0.1-1.8,0-3.7,0-5.6c0-0.9,0-1.9,0-2.8c-0.1-1-0.1-1.9-0.2-2.9c-0.1-1-0.1-1.9-0.2-2.9c-0.1-1-0.1-1.9-0.3-2.9
			c-0.3-1.9-0.5-3.8-0.8-5.8c-0.1-1-0.4-1.9-0.5-2.9l-0.6-2.8c-0.2-0.9-0.4-1.9-0.6-2.8c-0.3-0.9-0.5-1.8-0.8-2.7
			c-0.3-0.9-0.5-1.8-0.8-2.7c-0.3-0.9-0.5-1.8-0.8-2.7c-0.6-1.7-1.2-3.5-1.9-5.1c-0.3-0.8-0.7-1.7-1-2.5c-0.4-0.8-0.7-1.6-1.1-2.4
			c-0.7-1.6-1.3-3.1-2.1-4.6c-0.8-1.4-1.5-2.8-2.2-4.2c-0.3-0.7-0.7-1.3-1.1-2c-0.4-0.6-0.8-1.2-1.1-1.8c-0.7-1.2-1.4-2.4-2.1-3.4
			c-0.7-1-1.4-2-2.1-2.9c-0.6-0.9-1.2-1.7-1.8-2.5c-0.6-0.8-1.3-1.6-1.8-2.2c-2.2-2.7-3.5-4.3-3.5-4.3c-3.1-3.8-2.5-9.3,1.3-12.4
			s9.3-2.5,12.4,1.3C280.2,105.1,280.4,105.5,280.6,105.8z"/>
		<g>
			<polygon class="st1" points="255.6,147.6 231.9,76.6 305.1,91.6 			"/>
		</g>
	</g>
</g>
<circle class="st2" cx="183.1" cy="181.3" r="35.5"/>
</svg>
