<?xml version="1.0" encoding="utf-8"?>
<!-- Generator: Adobe Illustrator 19.2.1, SVG Export Plug-In . SVG Version: 6.00 Build 0)  -->
<svg version="1.1" id="Isolation_Mode" xmlns="http://www.w3.org/2000/svg" xmlns:xlink="http://www.w3.org/1999/xlink" x="0px"
	 y="0px" viewBox="0 0 362.5 362.5" style="enable-background:new 0 0 362.5 362.5;" xml:space="preserve">
<style type="text/css">
	.st0{fill:#0068AF;}
	.st1{fill:#FF7300;}
	.st2{fill:none;stroke:#0068AF;stroke-width:40;stroke-miterlimit:10;}
</style>
<path class="st0" d="M114.6,317.2c75.1,36.8,165.8,5.8,202.6-69.3C354,172.8,323,82.1,247.9,45.3C172.8,8.4,82.1,39.5,45.3,114.6
	C8.4,189.7,39.5,280.4,114.6,317.2z M76.6,130c28.3-57.8,98.1-81.6,155.9-53.3c57.8,28.3,81.6,98.1,53.3,155.9
	c-28.3,57.8-98.1,81.6-155.9,53.3C72.2,257.5,48.3,187.7,76.6,130z"/>
<polygon class="st0" points="261.1,73.2 217.7,51.9 250.7,13.4 271.4,23.6 "/>
<polygon class="st0" points="310.5,217.7 289.3,261.1 338.9,271.4 349.1,250.7 "/>
<polygon class="st0" points="101.4,289.3 144.7,310.5 111.8,349.1 91.1,338.9 "/>
<polygon class="st0" points="51.9,144.7 73.2,101.4 23.6,91.1 13.4,111.8 "/>
<polygon class="st0" points="314.4,161.2 298.7,115.5 348.6,111.8 356.1,133.6 "/>
<polygon class="st0" points="246.9,298.7 201.3,314.4 228.9,356.1 250.7,348.6 "/>
<polygon class="st0" points="48.1,201.3 63.7,246.9 13.8,250.7 6.4,228.9 "/>
<polygon class="st0" points="115.5,63.7 161.2,48.1 133.6,6.4 111.8,13.8 "/>
<polygon class="st0" points="297,112.5 265.3,76.1 310.2,53.8 325.3,71.2 "/>
<polygon class="st0" points="286.4,265.3 249.9,297 291.2,325.3 308.6,310.2 "/>
<polygon class="st0" points="65.5,249.9 97.1,286.4 52.3,308.6 37.2,291.2 "/>
<polygon class="st0" points="76.1,97.1 112.5,65.5 71.2,37.2 53.8,52.3 "/>
<polygon class="st0" points="311.7,214.5 315,166.4 362.5,182.3 360.9,205.3 "/>
<polygon class="st0" points="196.1,315 147.9,311.7 157.2,360.9 180.2,362.5 "/>
<polygon class="st0" points="50.8,147.9 47.4,196.1 0,180.2 1.6,157.2 "/>
<polygon class="st0" points="166.4,47.4 214.5,50.8 205.3,1.6 182.3,0 "/>
<g>
	<g>
		<path class="st1" d="M96.2,115.9c0,0-1.3,1.6-3.5,4.3c-0.5,0.7-1.2,1.5-1.8,2.2c-0.5,0.8-1.1,1.6-1.8,2.5
			c-0.6,0.9-1.3,1.9-2.1,2.9c-0.7,1.1-1.4,2.2-2.1,3.4c-0.4,0.6-0.8,1.2-1.1,1.8c-0.4,0.6-0.8,1.3-1.1,2c-0.7,1.4-1.4,2.8-2.2,4.2
			c-0.8,1.4-1.4,3-2.1,4.6c-0.3,0.8-0.7,1.6-1.1,2.4c-0.4,0.8-0.7,1.6-1,2.5c-0.6,1.7-1.2,3.4-1.9,5.1c-0.3,0.9-0.6,1.8-0.8,2.7
			c-0.3,0.9-0.5,1.8-0.8,2.7c-0.3,0.9-0.5,1.8-0.8,2.7c-0.2,0.9-0.4,1.9-0.6,2.8l-0.6,2.8c-0.2,0.9-0.4,1.9-0.5,2.9
			c-0.3,1.9-0.5,3.8-0.8,5.8c-0.2,1-0.2,1.9-0.3,2.9c-0.1,1-0.1,1.9-0.2,2.9c-0.1,1-0.1,1.9-0.2,2.9c0,1,0,1.9,0,2.8
			c0,1.9-0.1,3.8,0,5.6c0.3,3.7,0.4,7.3,0.9,10.6c0.2,1.7,0.4,3.3,0.7,4.9c0.3,1.6,0.7,3.1,1,4.5c0.2,0.7,0.3,1.4,0.5,2.1
			c0.1,0.4,0.1,0.7,0.2,1c0.1,0.3,0.2,0.7,0.3,1c0.4,1.3,0.7,2.6,1.1,3.7c0.3,1.2,0.7,2.3,0.9,3.3c0.4,1,0.7,1.9,1,2.7
			c1.2,3.3,1.9,5.2,1.9,5.2s-0.9-1.8-2.6-4.9c-0.4-0.8-0.9-1.7-1.4-2.6c-0.4-1-0.9-2-1.4-3.2c-0.5-1.1-1-2.3-1.6-3.6
			c-0.1-0.3-0.3-0.6-0.4-1c-0.1-0.3-0.2-0.7-0.4-1c-0.2-0.7-0.5-1.4-0.8-2.1c-0.5-1.4-1.1-2.9-1.6-4.5c-0.5-1.6-0.9-3.2-1.4-4.9
			c-1.1-3.4-1.7-7-2.5-10.8c-0.3-1.9-0.5-3.9-0.8-5.8c-0.1-1-0.3-2-0.4-3c-0.1-1-0.1-2-0.2-3c-0.1-1-0.1-2-0.2-3.1
			c-0.1-1-0.2-2.1-0.1-3.1c0-2.1,0-4.2,0-6.3c0-1.1,0.1-2.1,0.2-3.1c0.1-1,0.2-2.1,0.2-3.1c0.1-1,0.1-2.1,0.2-3.1
			c0.1-1,0.3-2.1,0.4-3.1c0.1-1,0.3-2,0.4-3.1c0.1-1,0.3-2,0.5-3c0.4-2,0.8-4,1.3-5.9c0.2-1,0.5-1.9,0.7-2.9
			c0.3-0.9,0.5-1.9,0.8-2.8c0.5-1.8,1-3.7,1.7-5.4c0.6-1.7,1.2-3.4,1.8-5c0.3-0.8,0.6-1.6,1-2.4c0.3-0.8,0.7-1.5,1-2.3
			c0.7-1.5,1.3-2.9,1.9-4.2c0.7-1.3,1.4-2.6,2-3.8c0.6-1.2,1.2-2.3,1.8-3.4c0.6-1,1.1-1.8,1.5-2.6c1.8-3,2.9-4.7,2.9-4.7
			c2.5-4.2,7.9-5.5,12.1-3c4.2,2.5,5.5,7.9,3,12.1C96.7,115.2,96.5,115.6,96.2,115.9z"/>
		<g>
			<polygon class="st1" points="57.3,91.6 130.6,76.6 106.9,147.6 			"/>
		</g>
	</g>
</g>
<circle class="st2" cx="179.4" cy="181.3" r="35.5"/>
</svg>
